# xmcd
# 
# Track frame offsets:
#     150
#     13967
#     27164
#     39929
#     53519
#     69004
#     81451
#     95521
#     104193
#     118210
#     133735
#     144791
#     157195
#     172665
#     186115
#     198460
#     210179
#     223751
#     238305
#     249947
# 
# Disc length: 3521
# 
# Revision: 2
# Processed by: cddbd v1.5.2PL0 Copyright (c) Steve Scherf et al.
# Submitted via: BonkEnc v1.0.6
# 
DISCID=180dbf14
DTITLE=Nat King Cole - Route 66
DYEAR=2005
DGENRE=Jazz
TTITLE0=Route 66
TTITLE1=(I Love You) For Sentimental Reasons
TTITLE2=After You Get What You Want
TTITLE3=After You're Gone
TTITLE4=All For You
TTITLE5=Autumn Leaves
TTITLE6=Come To Baby Do
TTITLE7=Crazy Rhythm
TTITLE8=Darling Je Vous Aim Beaucoup
TTITLE9=Don't Blame Me
TTITLE10=Early American
TTITLE11=Early Morning Blues
TTITLE12=Embraceable You
TTITLE13=Gee Baby Ain't I Good For You
TTITLE14=Gone With The Draft
TTITLE15=Got A Penny
TTITLE16=Hit The Jive Jack
TTITLE17=Homeward Bound
TTITLE18=Honeysuckle Rose
TTITLE19=I Just Can't See For Looking
EXTD=YEAR: 2005
EXTT0=
EXTT1=
EXTT2=
EXTT3=
EXTT4=
EXTT5=
EXTT6=
EXTT7=
EXTT8=
EXTT9=
EXTT10=
EXTT11=
EXTT12=
EXTT13=
EXTT14=
EXTT15=
EXTT16=
EXTT17=
EXTT18=
EXTT19=
PLAYORDER=
